<?xml version="1.0" encoding="utf-8"?>
<!-- Generator: Adobe Illustrator 21.1.0, SVG Export Plug-In . SVG Version: 6.00 Build 0)  -->
<svg version="1.1" id="Layer_1" xmlns="http://www.w3.org/2000/svg" xmlns:xlink="http://www.w3.org/1999/xlink" x="0px" y="0px"
	 viewBox="0 0 32 32" style="enable-background:new 0 0 32 32;" xml:space="preserve">
<style type="text/css">
	.st0{display:none;}
	.st1{display:inline;fill:#F5F5F5;}
	.st2{display:inline;fill:#424242;}
	.st3{display:inline;fill:#FFFFFF;}
	.st4{fill:#212121;}
</style>
<g class="st0">
	<path class="st1" d="M997.5,472L997.5,472c3.9,0,7-3.1,7-7l0,0c0-3.9-3.1-7-7-7l0,0c-3.9,0-7,3.1-7,7l0,0
		C990.5,468.9,993.6,472,997.5,472z"/>
	<path class="st1" d="M982.5,472L982.5,472c-3.9,0-7-3.1-7-7l0,0c0-3.9,3.1-7,7-7l0,0c3.9,0,7,3.1,7,7l0,0
		C989.5,468.9,986.4,472,982.5,472z"/>
	<path class="st1" d="M1065,472L1065,472c3.9,0,7-3.1,7-7l0,0c0-3.9-3.1-7-7-7l0,0c-3.9,0-7,3.1-7,7l0,0
		C1058,468.9,1061.1,472,1065,472z"/>
	<path class="st1" d="M1050,472L1050,472c-3.9,0-7-3.1-7-7l0,0c0-3.9,3.1-7,7-7l0,0c3.9,0,7,3.1,7,7l0,0
		C1057,468.9,1053.9,472,1050,472z"/>
</g>
<g class="st0">
	<path class="st2" d="M1080,600H970c-11,0-20-9-20-20v-95c0-11,9-20,20-20h110c11,0,20,9,20,20v95C1100,591,1091,600,1080,600z"/>
	<path class="st3" d="M1075,590H975c-8.3,0-15-6.7-15-15v-55c0-8.3,6.7-15,15-15h100c8.3,0,15,6.7,15,15v55
		C1090,583.3,1083.3,590,1075,590z"/>
	<path class="st3" d="M1082.5,553h-115c-4.1,0-7.5-3.4-7.5-7.5v-33c0-4.1,3.4-7.5,7.5-7.5h115c4.1,0,7.5,3.4,7.5,7.5v33
		C1090,549.6,1086.6,553,1082.5,553z"/>
	<path class="st1" d="M990,482.5L990,482.5c-4.1,0-7.5-3.4-7.5-7.5v-17.5c0-4.1,3.4-7.5,7.5-7.5l0,0c4.1,0,7.5,3.4,7.5,7.5V475
		C997.5,479.1,994.1,482.5,990,482.5z"/>
	<path class="st2" d="M990,480L990,480c-2.8,0-5-2.2-5-5v-20c0-2.8,2.2-5,5-5l0,0c2.8,0,5,2.2,5,5v20C995,477.8,992.8,480,990,480z"
		/>
	<path class="st1" d="M1057.5,482.5L1057.5,482.5c-4.1,0-7.5-3.4-7.5-7.5v-17.5c0-4.1,3.4-7.5,7.5-7.5l0,0c4.1,0,7.5,3.4,7.5,7.5
		V475C1065,479.1,1061.6,482.5,1057.5,482.5z"/>
	<path class="st2" d="M1057.5,480L1057.5,480c-1.4,0-2.5-1.1-2.5-2.5v-25c0-1.4,1.1-2.5,2.5-2.5l0,0c1.4,0,2.5,1.1,2.5,2.5v25
		C1060,478.9,1058.9,480,1057.5,480z"/>
	<path class="st2" d="M1057.5,480L1057.5,480c-2.8,0-5-2.2-5-5v-20c0-2.8,2.2-5,5-5l0,0c2.8,0,5,2.2,5,5v20
		C1062.5,477.8,1060.3,480,1057.5,480z"/>
	<path class="st2" d="M977.5,559.8v-24.3c0-6.9,1.9-11.9,5.6-15.1c3.7-3.2,8.6-4.8,14.6-4.8c6.1,0,11.1,1.5,15,4.5s5.8,7,5.8,12
		c0,2.2-0.4,3.6-1.3,4.4c-0.9,0.8-2.3,1.2-4.4,1.2c-3.7,0-5.6-1.2-5.7-3.6c-0.1-0.8-0.1-1.4-0.2-2c-0.1-0.6-0.3-1.3-0.7-2.2
		s-0.9-1.7-1.4-2.3c-0.6-0.6-1.5-1.1-2.6-1.6c-1.2-0.4-2.5-0.7-4.1-0.7c-6.1,0-9.2,3.3-9.2,10v24.3c0,6.7,3.1,10,9.3,10
		c1.9,0,3.4-0.3,4.7-0.9c1.2-0.6,2.2-1.4,2.7-2.5c0.6-1.1,0.9-2,1.1-2.9c0.2-0.8,0.3-1.9,0.4-3.1c0.2-2.4,2-3.6,5.6-3.6
		c2,0,3.5,0.4,4.4,1.2s1.4,2.3,1.4,4.4c0,5.2-1.9,9.4-5.8,12.6c-3.9,3.1-8.9,4.7-15,4.7c-6,0-10.8-1.6-14.5-4.8
		C979.3,571.7,977.5,566.6,977.5,559.8z"/>
	<path class="st2" d="M1031.6,569.2c0-1.3,0.5-2.7,1.5-4.1c1-1.4,2.2-2.1,3.4-2.1c0.8,0,1.6,0.4,2.6,1.1c1,0.7,1.9,1.5,2.8,2.4
		s2.2,1.7,3.9,2.4c1.7,0.7,3.5,1.1,5.6,1.1c2.8,0,5.1-0.6,7-1.9c1.9-1.3,2.8-3.2,2.8-5.7c0-1.7-0.5-3.3-1.5-4.7s-2.4-2.5-4-3.4
		c-1.7-0.9-3.5-1.8-5.5-2.6s-4-1.8-6-2.8s-3.8-2.2-5.5-3.5s-3-3.1-4-5.2c-1-2.2-1.5-4.7-1.5-7.5c0-3.1,0.6-5.9,1.9-8.3
		c1.2-2.4,2.9-4.3,5-5.6s4.3-2.3,6.7-2.9c2.4-0.6,4.9-0.9,7.6-0.9c1.5,0,3.1,0.1,4.8,0.3c1.7,0.2,3.5,0.6,5.4,1
		c1.9,0.5,3.4,1.2,4.6,2.2s1.8,2.2,1.8,3.6c0,1.3-0.4,2.6-1.2,4c-0.8,1.4-1.9,2.1-3.3,2.1c-0.5,0-1.9-0.6-4.3-1.7
		c-2.3-1.1-4.9-1.7-7.8-1.7c-3.1,0-5.6,0.6-7.3,1.8c-1.7,1.2-2.6,2.8-2.6,4.9c0,1.7,0.7,3.2,2.1,4.4c1.4,1.3,3.1,2.3,5.2,3.1
		s4.3,1.8,6.7,3c2.4,1.2,4.7,2.5,6.7,3.9c2.1,1.4,3.8,3.4,5.2,6.1c1.4,2.6,2.1,5.7,2.1,9.3c0,6-1.9,10.6-5.7,13.8
		c-3.8,3.2-8.8,4.9-15,4.9c-5.5,0-10.3-1.1-14.2-3.4C1033.6,574.3,1031.6,571.9,1031.6,569.2z"/>
</g>
<g>
	<path class="st4" d="M27.7,3.2h-2.9v2.4c0,1-0.8,1.9-1.9,1.9c-1,0-1.9-0.8-1.9-1.9V3.2H10.4v2.4c0,1-0.8,1.9-1.9,1.9
		S6.7,6.6,6.7,5.6V3.2H4.3C1.9,3.2,0,5.1,0,7.5v20.3C0,30.1,1.9,32,4.3,32h23.5c2.4,0,4.3-1.9,4.3-4.3V7.5C32,5.1,30.1,3.2,27.7,3.2
		z M30.4,14.9v5.4v6.8c0,1.8-1.4,3.2-3.2,3.2H4.8c-1.8,0-3.2-1.4-3.2-3.2v-6.8v-5.4v-1.6c0-0.9,0.7-1.6,1.6-1.6h1.6h22.4h1.6
		c0.9,0,1.6,0.7,1.6,1.6C30.4,13.3,30.4,14.9,30.4,14.9z"/>
	<path class="st4" d="M8.5,6.4C9,6.4,9.3,6,9.3,5.6V3.2V0.8C9.3,0.4,9,0,8.5,0C8.1,0,7.7,0.4,7.7,0.8v2.4v2.4C7.7,6,8.1,6.4,8.5,6.4
		z"/>
	<path class="st4" d="M22.8,6.4h0.1H23c0.4-0.1,0.7-0.4,0.7-0.8V3.2V0.8c0-0.4-0.3-0.7-0.7-0.8h-0.1h-0.1c-0.4,0.1-0.7,0.4-0.7,0.8
		v2.4v2.4C22.1,6,22.4,6.3,22.8,6.4z"/>
	<polygon class="st4" points="20.8,17.9 20.8,14.1 11.2,14.1 11.2,17.9 13.3,17.9 13.3,24.3 11.2,24.3 11.2,28 20.8,28 20.8,24.3 
		18.7,24.3 18.7,17.9 	"/>
</g>
</svg>
