<?xml version="1.0" encoding="utf-8"?>
<!-- Generator: Adobe Illustrator 21.1.0, SVG Export Plug-In . SVG Version: 6.00 Build 0)  -->
<svg version="1.1" id="Original_copy" xmlns="http://www.w3.org/2000/svg" xmlns:xlink="http://www.w3.org/1999/xlink" x="0px"
	 y="0px" viewBox="0 0 966 511" style="enable-background:new 0 0 966 511;" xml:space="preserve">
<style type="text/css">
	.st0{fill:#FFFFFF;}
	.st1{fill:#BDBDBD;}
</style>
<g>
	<rect class="st0" width="966" height="511"/>
	<g>
		<g>
			<path class="st1" d="M642.5,44.5h-39.9v32.6c0,14-11.4,25.4-25.4,25.4s-25.4-11.4-25.4-25.4V44.5h-145v32.6
				c0,14-11.4,25.4-25.4,25.4S356,91.1,356,77.1V44.5h-32.6c-32,0-58,26-58,58V378c0,32,26,58,58,58h319c32,0,58-26,58-58V102.5
				C700.5,70.5,674.5,44.5,642.5,44.5z M678.8,204v74v92.8c0,24-19.5,43.5-43.5,43.5H330.8c-24,0-43.5-19.5-43.5-43.5V278v-74v-21.8
				c0-12,9.7-21.8,21.8-21.8h21.8h304.5H657c12,0,21.8,9.7,21.8,21.8V204z"/>
			<path class="st1" d="M381.5,88c6,0,10.9-4.9,10.9-10.9V44.5V11.9c0-6-4.9-10.9-10.9-10.9s-10.9,4.9-10.9,10.9v32.6v32.6
				C370.6,83.1,375.5,88,381.5,88z"/>
			<path class="st1" d="M575.8,87.9c0.5,0.1,1,0.1,1.5,0.1s1-0.1,1.5-0.1c5.3-0.7,9.4-5.2,9.4-10.7V44.5V11.9c0-5.5-4.1-10-9.4-10.7
				c-0.5-0.1-1-0.1-1.5-0.1s-1,0.1-1.5,0.1c-5.3,0.7-9.4,5.2-9.4,10.7v32.6v32.6C566.4,82.6,570.5,87.1,575.8,87.9z"/>
			<polygon class="st1" points="548.3,243.9 548.3,193.1 417.7,193.1 417.7,243.9 446.7,243.9 446.7,330.9 417.7,330.9 417.7,381.6 
				548.3,381.6 548.3,330.9 519.3,330.9 519.3,243.9 			"/>
		</g>
		<g>
			<g>
				
					<ellipse transform="matrix(0.8889 -0.4581 0.4581 0.8889 -34.3697 408.4436)" class="st1" cx="824.9" cy="275.1" rx="21.8" ry="21.8"/>
				<path class="st1" d="M961.5,414.7c-29.6-26.5-45.5-52.9-51.7-64.5c1.3-3.7,1.3-8.3-0.8-14.2c-8.8-19.8-16.5-30.1-32.2-43.6
					c-11.4-9.8-24.1-7.5-30.2-1.5c-2.3,2.2-3.3,5.2-3.3,8.5c0.4-0.2,0.9-0.3,1.3-0.5c4-1.6,7.2-3.2,9.1-4.2c1-0.6,1.8-1,2.3-1.3
					l0.5-0.3c4.6-3,10.6-1.8,13.6,2.7c1.4,2.2,1.9,4.8,1.4,7.3c-0.5,2.6-2,4.8-4.2,6.2l-0.2,0.2c-4.3,2.7-9.7,5.3-15.2,7.5
					c7.8,8.7,18.4,20,25.3,32.3l-25.8,24c-4.2,3.9-5.1,10.3-2.1,15.2l25.2,41.6c2.3,3.8,6.3,5.8,10.4,5.8c2.1,0,4.3-0.6,6.3-1.8
					c5.7-3.5,7.6-10.9,4.1-16.7l-20.1-33.2l17.1-15.9c8.8,15.1,25.5,39.5,53.1,64.2c5,4.5,12.7,4.1,17.1-0.9
					C966.9,426.8,966.5,419.1,961.5,414.7z"/>
				<path class="st1" d="M866.2,307.7c3.6-2.4,4.6-7.2,2.2-10.8c-2.4-3.6-7.2-4.6-10.8-2.2l0,0c0,0-0.1,0-0.1,0.1
					c-0.1,0.1-0.3,0.2-0.6,0.3c-0.5,0.3-1.3,0.8-2.4,1.4c-2.1,1.2-5.3,2.7-9.3,4.3c-0.6,0.2-1.3,0.5-1.9,0.7
					c-7.8,2.9-18.3,5.5-30,5.5c-5.8,0-11.9-0.6-18.2-2.2c-3.7-0.9-7.5,1-9,4.4c-0.2,0.4-0.3,0.8-0.5,1.3c-1,4.2,1.5,8.4,5.7,9.4
					c6.1,1.5,12,2.3,17.6,2.6c1.5,0.1,2.9,0.1,4.4,0.1c15,0,27.8-3.5,37-7.1C860.1,311.7,865.9,307.9,866.2,307.7z"/>
			</g>
			<path class="st1" d="M770.5,278.3h-55h-10v10v42v10h10h55c5.5,0,10-4.5,10-10v-42C780.5,282.7,776,278.3,770.5,278.3z
				 M734.7,333.2c0.4,0,0.7-0.1,1-0.2s0.4-0.3,0.6-0.5c0.1-0.2,0.2-0.4,0.2-0.6s0.1-0.4,0.1-0.6c0-0.5,0.4-0.7,1.1-0.7
				c0.4,0,0.7,0.1,0.9,0.2c0.2,0.2,0.3,0.5,0.3,0.9c0,1.1-0.4,1.9-1.2,2.6c-0.8,0.6-1.8,1-3.1,1c-1.2,0-2.2-0.3-3-1
				s-1.1-1.7-1.1-3.1v-5c0-1.4,0.4-2.4,1.1-3.1c0.8-0.7,1.8-1,3-1s2.3,0.3,3.1,0.9s1.2,1.4,1.2,2.5c0,0.4-0.1,0.7-0.3,0.9
				c-0.2,0.2-0.5,0.2-0.9,0.2c-0.8,0-1.1-0.2-1.2-0.7c0-0.2,0-0.3,0-0.4s-0.1-0.3-0.1-0.4c-0.1-0.2-0.2-0.3-0.3-0.5
				c-0.1-0.1-0.3-0.2-0.5-0.3c-0.2-0.1-0.5-0.1-0.8-0.1c-1.3,0-1.9,0.7-1.9,2.1v5C732.8,332.5,733.5,333.2,734.7,333.2z M747,334.3
				c-0.8,0.7-1.8,1-3.1,1c-1.1,0-2.1-0.2-2.9-0.7c-0.8-0.5-1.2-1-1.2-1.5c0-0.3,0.1-0.6,0.3-0.8c0.2-0.3,0.4-0.4,0.7-0.4
				c0.2,0,0.3,0.1,0.5,0.2s0.4,0.3,0.6,0.5c0.2,0.2,0.4,0.3,0.8,0.5c0.3,0.1,0.7,0.2,1.1,0.2c0.6,0,1-0.1,1.4-0.4s0.6-0.6,0.6-1.2
				c0-0.4-0.1-0.7-0.3-1s-0.5-0.5-0.8-0.7s-0.7-0.4-1.1-0.5c-0.4-0.2-0.8-0.4-1.2-0.6s-0.8-0.5-1.1-0.7c-0.3-0.3-0.6-0.6-0.8-1.1
				s-0.3-1-0.3-1.5c0-0.6,0.1-1.2,0.4-1.7c0.3-0.5,0.6-0.9,1-1.1c0.4-0.3,0.9-0.5,1.4-0.6s1-0.2,1.6-0.2c0.3,0,0.6,0,1,0.1
				c0.3,0,0.7,0.1,1.1,0.2s0.7,0.3,0.9,0.5s0.4,0.5,0.4,0.7c0,0.3-0.1,0.5-0.3,0.8s-0.4,0.4-0.7,0.4c-0.1,0-0.4-0.1-0.9-0.3
				c-0.5-0.2-1-0.3-1.6-0.3s-1.1,0.1-1.5,0.4c-0.4,0.2-0.5,0.6-0.5,1c0,0.3,0.1,0.6,0.4,0.9c0.3,0.3,0.6,0.5,1.1,0.6
				c0.4,0.2,0.9,0.4,1.4,0.6s1,0.5,1.4,0.8s0.8,0.7,1.1,1.2s0.4,1.2,0.4,1.9C748.2,332.7,747.8,333.6,747,334.3z M757,334.8
				c-0.1,0.2-0.3,0.3-0.5,0.3h-6.2c-0.2,0-0.4-0.1-0.7-0.2c-0.2-0.1-0.3-0.3-0.3-0.5v-1.7c0-0.5,0.2-1,0.5-1.6
				c0.4-0.5,0.8-1,1.3-1.4l1.7-1.2c0.6-0.4,1-0.9,1.4-1.3s0.6-0.9,0.6-1.4c0-0.4-0.1-0.8-0.4-1.1c-0.3-0.3-0.7-0.5-1.2-0.5
				s-0.8,0.1-1.1,0.4s-0.4,0.7-0.4,1.2c0,0.2-0.1,0.4-0.3,0.6s-0.5,0.3-0.9,0.3c-0.7,0-1-0.4-1-1.2c0-1,0.4-1.8,1.1-2.4
				c0.8-0.6,1.6-0.9,2.7-0.9c1.1,0,2,0.3,2.8,1s1.2,1.5,1.2,2.6c0,0.7-0.2,1.4-0.6,2c-0.4,0.6-0.9,1.2-1.4,1.6
				c-0.6,0.4-1.1,0.8-1.7,1.2c-0.6,0.4-1,0.7-1.4,1.1s-0.6,0.7-0.6,1.1v0.4h5c0.2,0,0.4,0.1,0.5,0.3c0.1,0.2,0.2,0.4,0.2,0.7
				C757.3,334.3,757.2,334.6,757,334.8z M766.1,334.8c-0.1,0.2-0.3,0.3-0.5,0.3h-6.2c-0.2,0-0.4-0.1-0.7-0.2
				c-0.2-0.1-0.3-0.3-0.3-0.5v-1.7c0-0.5,0.2-1,0.5-1.6c0.4-0.5,0.8-1,1.3-1.4l1.7-1.2c0.6-0.4,1-0.9,1.4-1.3s0.6-0.9,0.6-1.4
				c0-0.4-0.1-0.8-0.4-1.1c-0.3-0.3-0.7-0.5-1.2-0.5s-0.8,0.1-1.1,0.4s-0.4,0.7-0.4,1.2c0,0.2-0.1,0.4-0.3,0.6s-0.5,0.3-0.9,0.3
				c-0.7,0-1-0.4-1-1.2c0-1,0.4-1.8,1.1-2.4c0.8-0.6,1.6-0.9,2.7-0.9c1.1,0,2,0.3,2.8,1s1.2,1.5,1.2,2.6c0,0.7-0.2,1.4-0.6,2
				c-0.4,0.6-0.9,1.2-1.4,1.6c-0.6,0.4-1.1,0.8-1.7,1.2c-0.6,0.4-1,0.7-1.4,1.1s-0.6,0.7-0.6,1.1v0.4h5c0.2,0,0.4,0.1,0.5,0.3
				c0.1,0.2,0.2,0.4,0.2,0.7C766.3,334.3,766.2,334.6,766.1,334.8z M775.5,331.2c0,1.4-0.4,2.4-1.1,3c-0.8,0.6-1.8,1-3,1
				c-1.3,0-2.3-0.3-3.1-1c-0.8-0.6-1.1-1.4-1.1-2.3c0-0.4,0.1-0.7,0.3-0.8c0.2-0.2,0.5-0.2,0.9-0.2c0.5,0,0.8,0.1,0.9,0.2
				c0.2,0.2,0.2,0.4,0.2,0.7c0,0.4,0.2,0.8,0.5,1s0.8,0.4,1.3,0.4c1.3,0,1.9-0.7,1.9-2v-0.3c0-0.7-0.2-1.2-0.5-1.5s-0.8-0.5-1.4-0.5
				h-2.6c-0.3,0-0.6-0.1-0.7-0.2c-0.1-0.2-0.2-0.4-0.2-0.7c0,0,0-0.1,0.1-0.2c0-0.1,0.1-0.2,0.1-0.2l0.4-4.7c0-0.5,0.2-0.7,0.4-0.7
				h5.5c0.2,0,0.4,0.1,0.5,0.3c0.1,0.2,0.2,0.4,0.2,0.7c0,0.3-0.1,0.5-0.2,0.7c-0.1,0.2-0.3,0.3-0.5,0.3h-4l-0.2,2.9h1.4
				c1.3,0,2.3,0.3,3.1,0.9s1.1,1.6,1.1,2.9v0.3H775.5z"/>
		</g>
		<g>
			<path class="st1" d="M224.9,282.7c-0.2,3.3-0.3,7-0.4,10.8c0.3-0.2,0.6-0.4,0.9-0.6c1.5-1.1,2.8-2.8,3.8-5.1
				c2.1-4.5,2.6-10.4,2.6-11.3v-0.2c0-1.8,0.6-3.9,1.6-5.4c1.8-2.7,4.8-4.3,8-4.3c1.9,0,3.8,0.6,5.4,1.6c2.8,1.8,4.4,4.9,4.3,8.3
				c0,0,0,0.1,0,0.2c0,1.5-0.2,5.8-1.5,11c-2.2,8.7-6,15.3-11.7,20c-4.2,3.5-9.6,5.7-15.4,6.3c-0.6,3.5-1.4,6.9-2.3,10.1l-36.1,27.7
				c-4.2,3.2-5.8,8.8-4,13.8l10.4,28.4c-2.7,8.5-5.2,17.7-7.3,27.3c-1.4,6.5,2.7,13,9.2,14.4c0.9,0.2,1.8,0.3,2.6,0.3
				c5.6,0,10.6-3.9,11.8-9.5c0.5-2.4,1.1-4.8,1.7-7.1c1.3,0,2.6-0.3,3.9-0.7c6.3-2.3,9.5-9.3,7.2-15.5l-3.5-9.6
				c4.5-13.1,9.4-24.5,13.8-33.7c2.2-4.7,4.3-8.7,6.2-12.2c6.2-0.2,12.3-3,16.7-12.5c7.5-20.3,9.1-33,7.3-53.5
				c-1.4-14.9-12-22.1-20.5-22c-1.5,0-3,0.4-4.3,1c-0.6,0.2-1.2,0.5-1.8,0.9l0,0c0,0,0,0-0.1,0c-0.5,0.4-5.1,3.3-6.5,9
				C225.7,274.3,225.1,279.6,224.9,282.7z"/>
			
				<ellipse transform="matrix(8.699342e-03 -1 1 8.699342e-03 -14.0973 461.2949)" class="st1" cx="225.6" cy="237.8" rx="21.8" ry="21.8"/>
			<path class="st1" d="M187.2,288.9L170.8,278l-3.2,4.8l16.3,10.9c0.2-0.6,0.4-1.2,0.7-1.7C185.2,290.8,186.1,289.8,187.2,288.9z"
				/>
			<path class="st1" d="M247.7,287.3c1.3-5.3,1.4-9.5,1.4-10.7v-0.1c0.1-2.6-1.2-5.1-3.4-6.6c-3.6-2.4-8.4-1.4-10.7,2.1l0,0
				c-0.7,1-1.3,2.5-1.3,4.3c0,0,0,0,0,0.2c0,1.1-0.4,7.3-2.7,12.2c-1.1,2.4-2.6,4.5-4.4,5.8c-1.9,1.3-4.1,2.3-7.9,2.3
				c-4.6,0-11.8-1.7-21.7-7.1c-3.8-2-8.5-0.6-10.5,3.1c-2,3.8-0.6,8.5,3.1,10.5c11.4,6.1,20.8,8.9,29.1,8.9c0.1,0,0.1,0,0.2,0
				c7.2,0,13.4-2.4,17.9-6.1C243.4,300.6,246.2,293.1,247.7,287.3z"/>
		</g>
	</g>
	<g>
		<g>
			<path class="st1" d="M345.5,477.5v-20.1c0-0.3,0.1-0.6,0.4-0.9c0.3-0.2,0.6-0.4,1.1-0.4h6.2c2.1,0,3.8,0.6,5.1,1.7
				c1.3,1.1,1.9,2.9,1.9,5.3v0.2c0,2.4-0.7,4.2-2,5.3c-1.3,1.1-3.1,1.7-5.3,1.7h-3.5v7.2c0,0.4-0.2,0.7-0.6,0.9
				c-0.4,0.2-0.9,0.3-1.4,0.3c-0.6,0-1-0.1-1.4-0.3C345.7,478.2,345.5,477.9,345.5,477.5z M349.5,467.2h3.5c1,0,1.8-0.3,2.4-0.9
				s0.9-1.5,0.9-2.7v-0.4c0-1.2-0.3-2.1-0.9-2.7s-1.4-0.9-2.4-0.9h-3.5V467.2z"/>
			<path class="st1" d="M364.3,477.5v-20.1c0-0.4,0.2-0.7,0.6-0.9c0.4-0.2,0.9-0.3,1.4-0.3c0.6,0,1,0.1,1.4,0.3
				c0.4,0.2,0.6,0.5,0.6,0.9v17.8h7.5c0.4,0,0.7,0.2,0.9,0.5c0.2,0.4,0.3,0.8,0.3,1.2c0,0.5-0.1,0.9-0.3,1.2
				c-0.2,0.4-0.5,0.5-0.9,0.5H366c-0.5,0-0.9-0.1-1.2-0.3C364.4,478.2,364.3,477.9,364.3,477.5z"/>
			<path class="st1" d="M380.8,477.5v-20.1c0-0.4,0.2-0.7,0.5-0.9c0.4-0.2,0.8-0.3,1.2-0.3h11c0.4,0,0.7,0.2,0.9,0.5
				c0.2,0.3,0.3,0.8,0.3,1.2c0,0.5-0.1,0.9-0.3,1.3c-0.2,0.3-0.5,0.5-0.9,0.5h-8.8v6.2h4.7c0.4,0,0.7,0.2,0.9,0.5
				c0.2,0.3,0.3,0.7,0.3,1.1s-0.1,0.7-0.3,1.1c-0.2,0.3-0.5,0.5-0.9,0.5h-4.7v6.2h8.8c0.4,0,0.7,0.2,0.9,0.5
				c0.2,0.4,0.3,0.8,0.3,1.3s-0.1,0.9-0.3,1.2c-0.2,0.4-0.5,0.5-0.9,0.5h-11c-0.5,0-0.9-0.1-1.2-0.3
				C381,478.2,380.8,477.9,380.8,477.5z"/>
			<path class="st1" d="M396.7,477c0,0,0-0.2,0.1-0.3l6-19.4c0.1-0.4,0.4-0.7,0.9-0.9s1-0.3,1.7-0.3s1.2,0.1,1.7,0.4
				c0.5,0.2,0.8,0.6,0.9,1l6,19.4c0,0.2,0.1,0.3,0.1,0.3c0,0.5-0.3,0.8-0.8,1.2c-0.6,0.3-1.1,0.5-1.7,0.5c-0.8,0-1.2-0.3-1.4-0.8
				L409,474h-6.6l-1.4,4c-0.2,0.5-0.7,0.8-1.5,0.8c-0.7,0-1.3-0.2-1.9-0.5C397,477.9,396.7,477.5,396.7,477z M403.1,470.7h5.3
				l-2.7-9.5L403.1,470.7z"/>
			<path class="st1" d="M416.9,475.2c0-0.5,0.2-1,0.5-1.4c0.4-0.5,0.8-0.7,1.2-0.7c0.3,0,0.6,0.1,0.9,0.4s0.7,0.5,1,0.9
				c0.3,0.3,0.8,0.6,1.4,0.9s1.3,0.4,2,0.4c1,0,1.8-0.2,2.5-0.7s1-1.1,1-2c0-0.6-0.2-1.2-0.5-1.7c-0.4-0.5-0.8-0.9-1.4-1.2
				c-0.6-0.3-1.2-0.6-1.9-0.9c-0.7-0.3-1.4-0.6-2.1-1s-1.4-0.8-1.9-1.3c-0.6-0.5-1.1-1.1-1.4-1.9c-0.4-0.8-0.5-1.7-0.5-2.6
				c0-1.1,0.2-2.1,0.7-2.9c0.4-0.8,1-1.5,1.8-2c0.7-0.5,1.5-0.8,2.4-1c0.8-0.2,1.7-0.3,2.7-0.3c0.5,0,1.1,0,1.7,0.1s1.2,0.2,1.9,0.4
				c0.7,0.2,1.2,0.4,1.6,0.8s0.6,0.8,0.6,1.3s-0.1,0.9-0.4,1.4s-0.7,0.7-1.2,0.7c-0.2,0-0.7-0.2-1.5-0.6s-1.7-0.6-2.8-0.6
				c-1.1,0-2,0.2-2.6,0.6s-0.9,1-0.9,1.7c0,0.6,0.2,1.1,0.7,1.6c0.5,0.4,1.1,0.8,1.8,1.1c0.7,0.3,1.5,0.6,2.4,1.1
				c0.9,0.4,1.6,0.9,2.4,1.4c0.7,0.5,1.3,1.2,1.8,2.1s0.7,2,0.7,3.3c0,2.1-0.7,3.7-2,4.9c-1.4,1.1-3.1,1.7-5.3,1.7
				c-2,0-3.6-0.4-5-1.2C417.6,477.1,416.9,476.2,416.9,475.2z"/>
			<path class="st1" d="M435.7,477.5v-20.1c0-0.4,0.2-0.7,0.5-0.9c0.4-0.2,0.8-0.3,1.2-0.3h11c0.4,0,0.7,0.2,0.9,0.5
				c0.2,0.3,0.3,0.8,0.3,1.2c0,0.5-0.1,0.9-0.3,1.3c-0.2,0.3-0.5,0.5-0.9,0.5h-8.8v6.2h4.7c0.4,0,0.7,0.2,0.9,0.5
				c0.2,0.3,0.3,0.7,0.3,1.1s-0.1,0.7-0.3,1.1c-0.2,0.3-0.5,0.5-0.9,0.5h-4.7v6.2h8.8c0.4,0,0.7,0.2,0.9,0.5
				c0.2,0.4,0.3,0.8,0.3,1.3s-0.1,0.9-0.3,1.2c-0.2,0.4-0.5,0.5-0.9,0.5h-11c-0.5,0-0.9-0.1-1.2-0.3
				C435.9,478.2,435.7,477.9,435.7,477.5z"/>
			<path class="st1" d="M461.4,477.6v-20.1c0-0.4,0.2-0.7,0.5-0.9c0.4-0.2,0.8-0.3,1.2-0.3h6c4.1,0,6.2,1.8,6.2,5.4
				c0,2.5-0.9,4.2-2.6,4.9c1.1,0.4,1.8,1,2.4,1.7c0.5,0.8,0.8,1.9,0.8,3.3v0.6c0,2.3-0.6,4-1.7,5s-2.6,1.6-4.5,1.6h-6.6
				c-0.5,0-0.9-0.1-1.3-0.4C461.6,478.2,461.4,477.9,461.4,477.6z M465.4,465h3.5c0.8,0,1.4-0.2,1.8-0.7s0.6-1.1,0.6-1.9
				s-0.2-1.4-0.7-1.9c-0.4-0.5-1.1-0.7-1.8-0.7h-3.4V465z M465.4,475.3h3.5c2,0,3-1.1,3-3.4v-0.5c0-1.2-0.3-2-0.8-2.5
				s-1.3-0.8-2.2-0.8h-3.5V475.3z"/>
			<path class="st1" d="M480.3,477.5v-20.1c0-0.4,0.2-0.7,0.5-0.9c0.4-0.2,0.8-0.3,1.2-0.3h11c0.4,0,0.7,0.2,0.9,0.5
				c0.2,0.3,0.3,0.8,0.3,1.2c0,0.5-0.1,0.9-0.3,1.3c-0.2,0.3-0.5,0.5-0.9,0.5h-8.7v6.2h4.7c0.4,0,0.7,0.2,0.9,0.5
				c0.2,0.3,0.3,0.7,0.3,1.1s-0.1,0.7-0.3,1.1c-0.2,0.3-0.5,0.5-0.9,0.5h-4.7v6.2h8.7c0.4,0,0.7,0.2,0.9,0.5
				c0.2,0.4,0.3,0.8,0.3,1.3s-0.1,0.9-0.3,1.2c-0.2,0.4-0.5,0.5-0.9,0.5h-11c-0.5,0-0.9-0.1-1.2-0.3
				C480.5,478.2,480.3,477.9,480.3,477.5z"/>
			<path class="st1" d="M506,477.5v-20.1c0-0.3,0.1-0.6,0.4-0.9c0.3-0.2,0.6-0.4,1.1-0.4h6.2c2.1,0,3.8,0.6,5.1,1.7s1.9,2.9,1.9,5.3
				v0.2c0,2.4-0.7,4.2-2,5.3c-1.3,1.1-3.1,1.7-5.3,1.7H510v7.2c0,0.4-0.2,0.7-0.6,0.9c-0.4,0.2-0.9,0.3-1.4,0.3
				c-0.6,0-1-0.1-1.4-0.3C506.2,478.2,506,477.9,506,477.5z M510,467.2h3.5c1,0,1.8-0.3,2.4-0.9c0.6-0.6,0.8-1.5,0.8-2.7v-0.4
				c0-1.2-0.3-2.1-0.8-2.7c-0.6-0.6-1.4-0.9-2.4-0.9H510V467.2z"/>
			<path class="st1" d="M521.5,477c0,0,0-0.2,0.1-0.3l6-19.4c0.1-0.4,0.4-0.7,0.9-0.9s1-0.3,1.7-0.3c0.6,0,1.2,0.1,1.7,0.4
				s0.8,0.6,0.9,1l6,19.4c0,0.2,0.1,0.3,0.1,0.3c0,0.5-0.3,0.8-0.8,1.2c-0.6,0.3-1.1,0.5-1.7,0.5c-0.8,0-1.2-0.3-1.4-0.8l-1.2-4.1
				H527l-1.2,4.1c-0.2,0.5-0.7,0.8-1.5,0.8c-0.7,0-1.3-0.2-1.9-0.5C521.8,477.9,521.5,477.5,521.5,477z M527.9,470.7h5.3l-2.7-9.5
				L527.9,470.7z"/>
			<path class="st1" d="M539.6,457.9c0-0.5,0.1-0.9,0.3-1.2c0.2-0.4,0.5-0.5,0.9-0.5h13.1c0.4,0,0.7,0.2,0.9,0.5
				c0.2,0.4,0.3,0.8,0.3,1.2c0,0.5-0.1,0.9-0.3,1.3s-0.5,0.5-0.9,0.5h-4.5v17.8c0,0.4-0.2,0.7-0.6,0.9c-0.4,0.2-0.9,0.3-1.4,0.3
				c-0.6,0-1-0.1-1.4-0.3s-0.6-0.5-0.6-0.9v-17.8h-4.5c-0.4,0-0.7-0.2-0.9-0.5C539.7,458.9,539.6,458.4,539.6,457.9z"/>
			<path class="st1" d="M558.9,477.5v-20.1c0-0.4,0.2-0.7,0.6-0.9c0.4-0.2,0.9-0.3,1.4-0.3s1,0.1,1.4,0.3c0.4,0.2,0.6,0.5,0.6,0.9
				v20.1c0,0.4-0.2,0.7-0.6,0.9c-0.4,0.2-0.9,0.3-1.4,0.3c-0.6,0-1-0.1-1.4-0.3S558.9,477.9,558.9,477.5z"/>
			<path class="st1" d="M568.2,477.5v-20.1c0-0.4,0.2-0.7,0.5-0.9c0.4-0.2,0.8-0.3,1.2-0.3h11c0.4,0,0.7,0.2,0.9,0.5
				s0.3,0.8,0.3,1.2c0,0.5-0.1,0.9-0.3,1.3c-0.2,0.3-0.5,0.5-0.9,0.5h-8.7v6.2h4.7c0.4,0,0.7,0.2,0.9,0.5s0.3,0.7,0.3,1.1
				s-0.1,0.7-0.3,1.1c-0.2,0.3-0.5,0.5-0.9,0.5h-4.7v6.2h8.7c0.4,0,0.7,0.2,0.9,0.5c0.2,0.4,0.3,0.8,0.3,1.3s-0.1,0.9-0.3,1.2
				c-0.2,0.4-0.5,0.5-0.9,0.5h-11c-0.5,0-0.9-0.1-1.2-0.3C568.4,478.2,568.2,477.9,568.2,477.5z"/>
			<path class="st1" d="M586.1,477.5v-20.1c0-0.4,0.2-0.7,0.6-0.9c0.4-0.2,0.9-0.3,1.4-0.3c0.7,0,1.3,0.1,1.7,0.4s0.8,0.8,1.3,1.7
				l6,11.5v-12.4c0-0.4,0.2-0.7,0.6-0.9c0.4-0.2,0.9-0.3,1.4-0.3c0.6,0,1,0.1,1.4,0.3c0.4,0.2,0.6,0.5,0.6,0.9v20.1
				c0,0.4-0.2,0.7-0.6,0.9c-0.4,0.2-0.9,0.3-1.4,0.3c-1.1,0-1.9-0.4-2.3-1.3l-6.6-12.4v12.4c0,0.4-0.2,0.7-0.6,0.9
				c-0.4,0.2-0.9,0.3-1.4,0.3c-0.6,0-1-0.1-1.4-0.3C586.3,478.2,586.1,477.9,586.1,477.5z"/>
			<path class="st1" d="M604.9,457.9c0-0.5,0.1-0.9,0.3-1.2c0.2-0.4,0.5-0.5,0.9-0.5h13.1c0.4,0,0.7,0.2,0.9,0.5
				c0.2,0.4,0.3,0.8,0.3,1.2c0,0.5-0.1,0.9-0.3,1.3s-0.5,0.5-0.9,0.5h-4.5v17.8c0,0.4-0.2,0.7-0.6,0.9c-0.4,0.2-0.9,0.3-1.4,0.3
				c-0.6,0-1-0.1-1.4-0.3c-0.4-0.2-0.6-0.5-0.6-0.9v-17.8h-4.5c-0.4,0-0.7-0.2-0.9-0.5C605,458.9,604.9,458.4,604.9,457.9z"/>
		</g>
		<g>
			<path class="st1" d="M345.5,504.1c0-0.3,0.1-0.5,0.3-0.8c0.2-0.3,0.4-0.4,0.6-0.4s0.3,0.1,0.6,0.3c0.2,0.2,0.5,0.4,0.7,0.7
				c0.3,0.3,0.6,0.5,1.2,0.7c0.5,0.2,1.1,0.3,1.8,0.3c1.1,0,1.9-0.3,2.6-0.8c0.6-0.5,0.9-1.3,0.9-2.3c0-0.9-0.3-1.7-0.9-2.3
				c-0.6-0.6-1.3-1-2.1-1.3c-0.8-0.3-1.6-0.6-2.4-1c-0.8-0.3-1.5-0.9-2.1-1.6s-0.9-1.6-0.9-2.8c0-0.9,0.2-1.6,0.5-2.3
				s0.8-1.1,1.3-1.5c0.6-0.3,1.1-0.6,1.7-0.7c0.6-0.2,1.3-0.2,1.9-0.2c1,0,2,0.2,3,0.5c0.9,0.3,1.4,0.7,1.4,1.3
				c0,0.2-0.1,0.5-0.3,0.8c-0.2,0.3-0.4,0.4-0.7,0.4c-0.1,0-0.5-0.2-1.2-0.5s-1.5-0.5-2.3-0.5c-1,0-1.8,0.2-2.5,0.6
				c-0.6,0.4-0.9,1.1-0.9,2c0,0.8,0.3,1.4,0.9,1.9s1.3,0.9,2.1,1.1c0.8,0.3,1.6,0.6,2.4,1s1.5,1,2.1,1.8s0.9,1.8,0.9,3.1
				c0,1.7-0.5,3-1.5,3.9s-2.3,1.3-4,1.3c-1.5,0-2.8-0.3-3.8-0.9C346,505.3,345.5,504.7,345.5,504.1z"/>
			<path class="st1" d="M358.9,501.3v-7.6c0-1.9,0.5-3.3,1.5-4.2c1-0.9,2.3-1.3,3.9-1.3s3,0.4,4,1.2c1,0.8,1.5,1.9,1.5,3.1
				c0,0.5-0.1,0.8-0.3,0.9c-0.2,0.2-0.4,0.2-0.8,0.2c-0.7,0-1-0.2-1.1-0.7c-0.1-1.9-1.2-2.9-3.3-2.9c-2.2,0-3.3,1.2-3.3,3.6v7.6
				c0,2.4,1.1,3.6,3.4,3.6c0.7,0,1.2-0.1,1.6-0.3c0.4-0.2,0.8-0.5,1-0.8c0.2-0.4,0.3-0.7,0.4-0.9c0.1-0.3,0.1-0.6,0.2-1
				c0-0.5,0.4-0.7,1.1-0.7c0.4,0,0.6,0.1,0.8,0.3c0.2,0.2,0.3,0.5,0.3,0.9c0,1.3-0.5,2.3-1.5,3.2c-1,0.8-2.3,1.3-4,1.3
				c-1.6,0-2.9-0.4-3.9-1.3C359.4,504.6,358.9,503.2,358.9,501.3z"/>
			<path class="st1" d="M372.5,505.9V489c0-0.2,0.1-0.4,0.3-0.5c0.2-0.1,0.5-0.2,0.7-0.2c0.3,0,0.5,0.1,0.7,0.2s0.3,0.3,0.3,0.5v7.2
				h6.8V489c0-0.2,0.1-0.4,0.3-0.5c0.2-0.1,0.5-0.2,0.7-0.2s0.5,0.1,0.7,0.2s0.3,0.3,0.3,0.5v16.9c0,0.2-0.1,0.4-0.3,0.6
				c-0.2,0.1-0.5,0.2-0.7,0.2s-0.5-0.1-0.7-0.2s-0.3-0.3-0.3-0.6V498h-6.8v7.9c0,0.2-0.1,0.4-0.3,0.6c-0.2,0.1-0.5,0.2-0.7,0.2
				c-0.3,0-0.5-0.1-0.7-0.2C372.6,506.4,372.5,506.2,372.5,505.9z"/>
			<path class="st1" d="M387.1,505.9V489c0-0.2,0.1-0.4,0.3-0.6s0.4-0.2,0.7-0.2h9c0.2,0,0.4,0.1,0.5,0.3c0.1,0.2,0.2,0.4,0.2,0.7
				c0,0.3-0.1,0.5-0.2,0.7s-0.3,0.3-0.5,0.3h-7.8v6.4h3.9c0.2,0,0.4,0.1,0.5,0.3c0.1,0.2,0.2,0.4,0.2,0.6s-0.1,0.4-0.2,0.6
				s-0.3,0.3-0.5,0.3h-3.9v6.4h7.8c0.2,0,0.4,0.1,0.5,0.3c0.1,0.2,0.2,0.4,0.2,0.7c0,0.3-0.1,0.5-0.2,0.7s-0.3,0.3-0.5,0.3h-9
				c-0.3,0-0.5-0.1-0.7-0.2C387.2,506.4,387.1,506.2,387.1,505.9z"/>
			<path class="st1" d="M400,506v-17c0-0.2,0.1-0.4,0.3-0.5c0.2-0.1,0.4-0.2,0.7-0.2h4.5c1.6,0,3,0.4,4,1.3s1.5,2.3,1.5,4.2v7.4
				c0,1.9-0.5,3.3-1.5,4.2c-1,0.9-2.3,1.3-4,1.3H401c-0.3,0-0.5-0.1-0.7-0.2C400.1,506.3,400,506.2,400,506z M402.1,504.8h3.3
				c1.1,0,1.9-0.3,2.5-0.9s0.9-1.5,0.9-2.7v-7.4c0-1.2-0.3-2.1-0.9-2.7s-1.4-0.9-2.5-0.9h-3.3V504.8z"/>
			<path class="st1" d="M414.2,501.3V489c0-0.2,0.1-0.4,0.3-0.5c0.2-0.1,0.5-0.2,0.7-0.2c0.3,0,0.5,0.1,0.7,0.2s0.3,0.3,0.3,0.5
				v12.3c0,2.4,1.1,3.6,3.4,3.6c1.1,0,1.9-0.3,2.5-0.9s0.9-1.5,0.9-2.7V489c0-0.5,0.4-0.7,1.1-0.7c0.3,0,0.5,0.1,0.7,0.2
				s0.3,0.3,0.3,0.5v12.3c0,1.9-0.5,3.3-1.5,4.2c-1,0.9-2.3,1.3-4,1.3s-3-0.4-4-1.3C414.7,504.6,414.2,503.2,414.2,501.3z"/>
			<path class="st1" d="M428.7,505.9V489c0-0.2,0.1-0.4,0.3-0.5c0.2-0.1,0.5-0.2,0.7-0.2c0.3,0,0.5,0.1,0.7,0.2s0.3,0.3,0.3,0.5
				v15.8h6.9c0.2,0,0.4,0.1,0.5,0.3c0.1,0.2,0.2,0.4,0.2,0.7c0,0.3-0.1,0.5-0.2,0.7s-0.3,0.3-0.5,0.3h-8c-0.3,0-0.5-0.1-0.7-0.2
				C428.8,506.4,428.7,506.2,428.7,505.9z"/>
			<path class="st1" d="M440.5,505.9V489c0-0.2,0.1-0.4,0.3-0.6s0.4-0.2,0.7-0.2h9c0.2,0,0.4,0.1,0.5,0.3c0.1,0.2,0.2,0.4,0.2,0.7
				c0,0.3-0.1,0.5-0.2,0.7s-0.3,0.3-0.5,0.3h-7.8v6.4h3.9c0.2,0,0.4,0.1,0.5,0.3c0.1,0.2,0.2,0.4,0.2,0.6s-0.1,0.4-0.2,0.6
				s-0.3,0.3-0.5,0.3h-3.9v6.4h7.8c0.2,0,0.4,0.1,0.5,0.3c0.1,0.2,0.2,0.4,0.2,0.7c0,0.3-0.1,0.5-0.2,0.7s-0.3,0.3-0.5,0.3h-9
				c-0.3,0-0.5-0.1-0.7-0.2C440.6,506.4,440.5,506.2,440.5,505.9z"/>
			<path class="st1" d="M453.4,505.9V489c0-0.2,0.1-0.4,0.2-0.5s0.3-0.2,0.5-0.2h4.6c1.7,0,3,0.4,4.1,1.2c1,0.8,1.5,2.1,1.5,3.9
				c0,2.8-1.3,4.4-3.8,4.9l3.7,7.1c0.1,0.1,0.1,0.2,0.1,0.4c0,0.3-0.1,0.5-0.4,0.7s-0.6,0.3-0.9,0.3c-0.4,0-0.7-0.3-1-0.8l-3.8-7.4
				h-2.9v7.4c0,0.2-0.1,0.4-0.3,0.6c-0.2,0.1-0.5,0.2-0.7,0.2s-0.5-0.1-0.7-0.2C453.5,506.4,453.4,506.2,453.4,505.9z M455.5,496.8
				h3.2c2.3,0,3.5-1.1,3.5-3.3c0-2.2-1.2-3.3-3.5-3.3h-3.2V496.8z"/>
			<path class="st1" d="M472.1,505.9V489c0-0.2,0.1-0.4,0.3-0.5c0.2-0.1,0.5-0.2,0.7-0.2c0.3,0,0.5,0.1,0.7,0.2s0.3,0.3,0.3,0.5
				v16.9c0,0.2-0.1,0.4-0.3,0.6c-0.2,0.1-0.5,0.2-0.7,0.2c-0.3,0-0.5-0.1-0.7-0.2C472.2,506.4,472.1,506.2,472.1,505.9z"/>
			<path class="st1" d="M476.9,504.1c0-0.3,0.1-0.5,0.3-0.8c0.2-0.3,0.4-0.4,0.6-0.4s0.3,0.1,0.6,0.3c0.2,0.2,0.5,0.4,0.7,0.7
				c0.3,0.3,0.6,0.5,1.2,0.7c0.5,0.2,1.1,0.3,1.8,0.3c1.1,0,1.9-0.3,2.6-0.8c0.6-0.5,0.9-1.3,0.9-2.3c0-0.9-0.3-1.7-0.9-2.3
				c-0.6-0.6-1.3-1-2.1-1.3c-0.8-0.3-1.6-0.6-2.4-1c-0.8-0.3-1.5-0.9-2.1-1.6s-0.9-1.6-0.9-2.8c0-0.9,0.2-1.6,0.5-2.3
				s0.8-1.1,1.3-1.5c0.6-0.3,1.1-0.6,1.7-0.7c0.6-0.2,1.3-0.2,1.9-0.2c1,0,2,0.2,3,0.5c0.9,0.3,1.4,0.7,1.4,1.3
				c0,0.2-0.1,0.5-0.3,0.8c-0.2,0.3-0.4,0.4-0.7,0.4c-0.1,0-0.5-0.2-1.2-0.5s-1.5-0.5-2.3-0.5c-1,0-1.8,0.2-2.5,0.6
				c-0.6,0.4-0.9,1.1-0.9,2c0,0.8,0.3,1.4,0.9,1.9s1.3,0.9,2.1,1.1c0.8,0.3,1.6,0.6,2.4,1s1.5,1,2.1,1.8s0.9,1.8,0.9,3.1
				c0,1.7-0.5,3-1.5,3.9s-2.3,1.3-4,1.3c-1.5,0-2.8-0.3-3.8-0.9C477.4,505.3,476.9,504.7,476.9,504.1z"/>
			<path class="st1" d="M494.5,504.1c0-0.3,0.1-0.5,0.3-0.8c0.2-0.3,0.4-0.4,0.6-0.4s0.3,0.1,0.6,0.3c0.2,0.2,0.5,0.4,0.7,0.7
				c0.3,0.3,0.6,0.5,1.2,0.7c0.5,0.2,1.1,0.3,1.8,0.3c1.1,0,1.9-0.3,2.6-0.8s0.9-1.3,0.9-2.3c0-0.9-0.3-1.7-0.9-2.3
				c-0.6-0.6-1.3-1-2.1-1.3c-0.8-0.3-1.6-0.6-2.4-1c-0.8-0.3-1.5-0.9-2.1-1.6s-0.9-1.6-0.9-2.8c0-0.9,0.2-1.6,0.5-2.3
				c0.3-0.7,0.8-1.1,1.3-1.5c0.6-0.3,1.1-0.6,1.7-0.7c0.6-0.2,1.3-0.2,1.9-0.2c1,0,2,0.2,3,0.5c0.9,0.3,1.4,0.7,1.4,1.3
				c0,0.2-0.1,0.5-0.3,0.8c-0.2,0.3-0.4,0.4-0.7,0.4c-0.1,0-0.5-0.2-1.2-0.5s-1.5-0.5-2.3-0.5c-1,0-1.8,0.2-2.5,0.6s-0.9,1.1-0.9,2
				c0,0.8,0.3,1.4,0.9,1.9s1.3,0.9,2.1,1.1c0.8,0.3,1.6,0.6,2.4,1s1.5,1,2.1,1.8s0.9,1.8,0.9,3.1c0,1.7-0.5,3-1.5,3.9
				s-2.3,1.3-4,1.3c-1.5,0-2.8-0.3-3.8-0.9C495,505.3,494.5,504.7,494.5,504.1z"/>
			<path class="st1" d="M507.9,501.3v-7.6c0-1.9,0.5-3.3,1.5-4.2c1-0.9,2.3-1.3,3.9-1.3c1.6,0,3,0.4,4,1.2c1,0.8,1.5,1.9,1.5,3.1
				c0,0.5-0.1,0.8-0.3,0.9c-0.2,0.2-0.4,0.2-0.8,0.2c-0.7,0-1-0.2-1.1-0.7c-0.1-1.9-1.2-2.9-3.3-2.9c-2.2,0-3.3,1.2-3.3,3.6v7.6
				c0,2.4,1.1,3.6,3.4,3.6c0.7,0,1.2-0.1,1.6-0.3c0.4-0.2,0.8-0.5,1-0.8c0.2-0.4,0.3-0.7,0.4-0.9c0.1-0.3,0.1-0.6,0.2-1
				c0-0.5,0.4-0.7,1.1-0.7c0.4,0,0.6,0.1,0.8,0.3c0.2,0.2,0.3,0.5,0.3,0.9c0,1.3-0.5,2.3-1.5,3.2c-1,0.8-2.3,1.3-4,1.3
				c-1.6,0-2.9-0.4-3.9-1.3C508.4,504.6,507.9,503.2,507.9,501.3z"/>
			<path class="st1" d="M521.5,505.9V489c0-0.2,0.1-0.4,0.3-0.5s0.5-0.2,0.7-0.2s0.5,0.1,0.7,0.2s0.3,0.3,0.3,0.5v7.2h6.8V489
				c0-0.2,0.1-0.4,0.3-0.5s0.5-0.2,0.7-0.2c0.3,0,0.5,0.1,0.7,0.2s0.3,0.3,0.3,0.5v16.9c0,0.2-0.1,0.4-0.3,0.6
				c-0.2,0.1-0.5,0.2-0.7,0.2c-0.3,0-0.5-0.1-0.7-0.2s-0.3-0.3-0.3-0.6V498h-6.8v7.9c0,0.2-0.1,0.4-0.3,0.6
				c-0.2,0.1-0.5,0.2-0.7,0.2s-0.5-0.1-0.7-0.2S521.5,506.2,521.5,505.9z"/>
			<path class="st1" d="M536.1,505.9V489c0-0.2,0.1-0.4,0.3-0.6s0.4-0.2,0.7-0.2h9c0.2,0,0.4,0.1,0.5,0.3c0.1,0.2,0.2,0.4,0.2,0.7
				c0,0.3-0.1,0.5-0.2,0.7c-0.1,0.2-0.3,0.3-0.5,0.3h-7.8v6.4h3.9c0.2,0,0.4,0.1,0.5,0.3c0.1,0.2,0.2,0.4,0.2,0.6s-0.1,0.4-0.2,0.6
				s-0.3,0.3-0.5,0.3h-3.9v6.4h7.8c0.2,0,0.4,0.1,0.5,0.3c0.1,0.2,0.2,0.4,0.2,0.7c0,0.3-0.1,0.5-0.2,0.7c-0.1,0.2-0.3,0.3-0.5,0.3
				h-9c-0.3,0-0.5-0.1-0.7-0.2C536.2,506.4,536.1,506.2,536.1,505.9z"/>
			<path class="st1" d="M549.1,506v-17c0-0.2,0.1-0.4,0.3-0.5s0.4-0.2,0.7-0.2h4.5c1.6,0,3,0.4,4,1.3s1.5,2.3,1.5,4.2v7.4
				c0,1.9-0.5,3.3-1.5,4.2c-1,0.9-2.3,1.3-4,1.3H550c-0.3,0-0.5-0.1-0.7-0.2C549.1,506.3,549.1,506.2,549.1,506z M551.2,504.8h3.3
				c1.1,0,1.9-0.3,2.5-0.9s0.9-1.5,0.9-2.7v-7.4c0-1.2-0.3-2.1-0.9-2.7c-0.6-0.6-1.4-0.9-2.5-0.9h-3.3V504.8z"/>
			<path class="st1" d="M563.2,501.3V489c0-0.2,0.1-0.4,0.3-0.5s0.5-0.2,0.7-0.2c0.3,0,0.5,0.1,0.7,0.2s0.3,0.3,0.3,0.5v12.3
				c0,2.4,1.1,3.6,3.4,3.6c1.1,0,1.9-0.3,2.5-0.9s0.9-1.5,0.9-2.7V489c0-0.5,0.4-0.7,1.1-0.7c0.3,0,0.5,0.1,0.7,0.2s0.3,0.3,0.3,0.5
				v12.3c0,1.9-0.5,3.3-1.5,4.2c-1,0.9-2.3,1.3-4,1.3s-3-0.4-4-1.3C563.7,504.6,563.2,503.2,563.2,501.3z"/>
			<path class="st1" d="M577.7,505.9V489c0-0.2,0.1-0.4,0.3-0.5s0.5-0.2,0.7-0.2c0.3,0,0.5,0.1,0.7,0.2s0.3,0.3,0.3,0.5v15.8h6.9
				c0.2,0,0.4,0.1,0.5,0.3c0.1,0.2,0.2,0.4,0.2,0.7c0,0.3-0.1,0.5-0.2,0.7c-0.1,0.2-0.3,0.3-0.5,0.3h-8c-0.3,0-0.5-0.1-0.7-0.2
				C577.8,506.4,577.7,506.2,577.7,505.9z"/>
			<path class="st1" d="M589.5,505.9V489c0-0.2,0.1-0.4,0.3-0.5s0.5-0.2,0.7-0.2c0.3,0,0.5,0.1,0.7,0.2s0.3,0.3,0.3,0.5v16.9
				c0,0.2-0.1,0.4-0.3,0.6c-0.2,0.1-0.5,0.2-0.7,0.2c-0.3,0-0.5-0.1-0.7-0.2S589.5,506.2,589.5,505.9z"/>
			<path class="st1" d="M595.2,505.9V489c0-0.5,0.4-0.7,1.1-0.7c0.4,0,0.7,0.1,0.9,0.3c0.2,0.2,0.5,0.5,0.7,1l6.3,12.3V489
				c0-0.2,0.1-0.4,0.3-0.5s0.5-0.2,0.7-0.2c0.3,0,0.5,0.1,0.7,0.2s0.3,0.3,0.3,0.5v16.9c0,0.2-0.1,0.4-0.3,0.6
				c-0.2,0.1-0.5,0.2-0.7,0.2c-0.5,0-1-0.3-1.3-1l-6.5-12.7v12.9c0,0.2-0.1,0.4-0.3,0.6c-0.2,0.1-0.5,0.2-0.7,0.2
				c-0.3,0-0.5-0.1-0.7-0.2C595.3,506.4,595.2,506.2,595.2,505.9z"/>
			<path class="st1" d="M609.6,501.3v-7.6c0-1.9,0.5-3.3,1.5-4.2c1-0.9,2.3-1.3,3.9-1.3c1.6,0,3,0.4,4,1.2c1,0.8,1.5,1.9,1.5,3.3
				c0,0.4-0.1,0.7-0.3,0.8c-0.2,0.2-0.4,0.2-0.8,0.2c-0.7,0-1-0.2-1.1-0.7c-0.2-1.9-1.3-2.9-3.3-2.9c-2.2,0-3.3,1.2-3.3,3.6v7.6
				c0,2.4,1.1,3.6,3.3,3.6c1.1,0,1.9-0.3,2.5-0.9s0.9-1.5,0.9-2.7v-2.6h-3c-0.2,0-0.4-0.1-0.5-0.3c-0.1-0.2-0.2-0.4-0.2-0.6
				s0.1-0.4,0.2-0.6c0.1-0.2,0.3-0.3,0.5-0.3h4.4c0.2,0,0.4,0.1,0.5,0.2c0.1,0.2,0.2,0.3,0.2,0.6v3.5c0,1.9-0.5,3.3-1.5,4.2
				c-1,0.9-2.3,1.3-4,1.3c-1.6,0-3-0.4-3.9-1.3C610.1,504.6,609.6,503.2,609.6,501.3z"/>
		</g>
	</g>
</g>
</svg>
